# xmcd CD database file
#
# Track frame offsets:
#	150
#	26612
#	63910
#	77740
#	91525
#	108122
#	119690
#	148120
#	161687
#	165825
#	177190
#
# Disc length: 2696 seconds
#
# Revision: 2
# Processed by: cddbd v1.5.2PL0 Copyright (c) Steve Scherf et al.
# Submitted via: CDex 1.60beta1-cs1
#
DISCID=7f0a860b
DTITLE=CAPTAIN HEDGE HOG - LAST GIG 020704
DYEAR=2002
DGENRE=Bootleg
TTITLE0=MC
TTITLE1=ISOTONIC
TTITLE2=LET’S LOCK
TTITLE3=EXTRA
TTITLE4=I DON’T CARE
TTITLE5=LEMON
TTITLE6=MUST BE ALONE
TTITLE7=OUT OF CONTROL
TTITLE8=PASSAGE OF TIME
TTITLE9=CAN’T USE
TTITLE10=YOU DON’T KNOW HOW MY FEEL
EXTD=YEAR: 2002
EXTT0=
EXTT1=
EXTT2=
EXTT3=
EXTT4=
EXTT5=
EXTT6=
EXTT7=
EXTT8=
EXTT9=
EXTT10=
PLAYORDER=
